<svg xmlns="http://www.w3.org/2000/svg" xmlns:xlink="http://www.w3.org/1999/xlink" width="24.515380859375" height="23.2294921875" viewBox="0 0 24.515380859375 23.2294921875" fill="none">
<path d="M0 7.93714C0 9.59492 1.40065 10.9903 3.06443 10.9903C4.72821 10.9903 6.12886 9.59492 6.12886 7.93632C6.12886 6.27937 4.72821 4.88396 3.06443 4.88396C1.40065 4.88396 0 6.28019 0 7.93632L0 7.93714ZM5.51597 3.0532C5.51597 4.70933 6.91662 6.10556 8.5804 6.10556C10.2442 6.10556 11.6448 4.71015 11.6448 3.0532C11.6448 1.39542 10.2442 0 8.5804 0C6.91662 0 5.51597 1.39542 5.51597 3.0532ZM12.8706 3.0532C12.8706 4.70933 14.2712 6.10556 15.935 6.10556C17.5988 6.10556 18.9995 4.71015 18.9995 3.0532C18.9995 1.39542 17.5988 0 15.935 0C14.2712 0 12.8706 1.39542 12.8706 3.0532ZM18.3866 7.93632C18.3866 9.59411 19.7872 10.9895 21.451 10.9895C23.1148 10.9895 24.5154 9.59492 24.5154 7.93632C24.5154 6.27937 23.1148 4.88396 21.451 4.88396C19.7872 4.88396 18.3866 6.28019 18.3866 7.93632ZM18.8246 14.4789C17.7737 13.2573 16.8985 12.2103 15.7601 10.9018C15.1473 10.2049 14.4469 9.59411 13.6583 9.33257C13.5709 9.33257 13.396 9.24483 13.2212 9.24483C12.8706 9.15794 12.6083 9.15794 12.2577 9.15794C11.9071 9.15794 11.6448 9.15794 11.2942 9.24483C11.1194 9.24483 11.0319 9.33257 10.8571 9.33257C9.98105 9.59411 9.28073 10.2918 8.75527 10.9018C7.70519 12.1234 6.82919 13.1704 5.69084 14.478C4.11532 16.0489 2.10097 17.8813 2.45154 20.3229C2.80211 21.5445 3.67732 22.7661 5.34108 23.2014C6.2163 23.3761 9.10584 22.6784 12.1703 22.6784L12.3451 22.6784C15.4096 22.6784 18.2117 23.3761 19.1743 23.2014C20.7507 22.853 21.7133 21.6314 22.0639 20.3237C22.4144 17.8805 20.4001 16.0489 18.8246 14.4789Z"   fill="#665D21" >
</path>
</svg>
