<svg xmlns="http://www.w3.org/2000/svg" xmlns:xlink="http://www.w3.org/1999/xlink" width="24" height="24" viewBox="0 0 24 24" fill="none">
<path d="M7.66666 0L7.66666 2.52633L16.3333 2.52633L16.3333 0L18.3333 0L18.3333 2.52633L22.6667 2.52633C22.6868 2.52633 22.707 2.52676 22.7272 2.52763C22.7474 2.5285 22.7675 2.5298 22.7876 2.53154C22.8077 2.53327 22.8278 2.53544 22.8478 2.53805C22.8678 2.54066 22.8877 2.54368 22.9076 2.54714C22.9274 2.55059 22.9472 2.55447 22.9669 2.55877C22.9865 2.5631 23.0061 2.56783 23.0255 2.57298C23.045 2.57814 23.0643 2.5837 23.0835 2.58968C23.1026 2.59566 23.1217 2.60205 23.1405 2.60884C23.1594 2.61565 23.1781 2.62285 23.1966 2.63045C23.2152 2.63805 23.2335 2.64605 23.2516 2.65446C23.2698 2.66285 23.2877 2.67162 23.3054 2.68078C23.3231 2.68995 23.3406 2.6995 23.3579 2.70941C23.3752 2.71933 23.3922 2.72963 23.4089 2.74028C23.4257 2.75092 23.4422 2.76192 23.4585 2.77329C23.4747 2.78464 23.4907 2.79635 23.5063 2.80841C23.522 2.82045 23.5374 2.83282 23.5525 2.84553C23.5676 2.85824 23.5823 2.87127 23.5968 2.88461C23.6113 2.89797 23.6254 2.91163 23.6392 2.92558C23.653 2.93954 23.6665 2.95378 23.6796 2.96831C23.6928 2.98282 23.7055 2.99762 23.7179 3.01272C23.7303 3.02782 23.7424 3.04315 23.7541 3.05876C23.7658 3.07436 23.7771 3.0902 23.788 3.1063C23.7989 3.12238 23.8094 3.13869 23.8196 3.15524C23.8297 3.17176 23.8394 3.18852 23.8488 3.20548C23.8581 3.22244 23.867 3.23959 23.8755 3.25693C23.8841 3.27428 23.8922 3.29181 23.8998 3.30951C23.9075 3.32719 23.9147 3.34504 23.9216 3.36304C23.9284 3.38104 23.9347 3.39919 23.9407 3.41748C23.9467 3.43575 23.9522 3.45413 23.9572 3.47267C23.9623 3.49117 23.9669 3.50979 23.9711 3.5285C23.9752 3.54721 23.9789 3.56601 23.9822 3.5849C23.9855 3.60376 23.9883 3.62268 23.9907 3.64168L24 3.78947L24 22.7368C24 22.756 23.9995 22.7751 23.9986 22.7942C23.9977 22.8133 23.9963 22.8324 23.9945 22.8514C23.9927 22.8705 23.9903 22.8895 23.9876 22.9084C23.9849 22.9274 23.9817 22.9462 23.978 22.9651C23.9744 22.9839 23.9703 23.0026 23.9657 23.0212C23.9612 23.0398 23.9562 23.0584 23.9508 23.0768C23.9453 23.0952 23.9394 23.1135 23.9331 23.1317C23.9268 23.1499 23.9201 23.1679 23.9129 23.1858C23.9057 23.2037 23.8981 23.2214 23.8901 23.2389C23.882 23.2564 23.8736 23.2738 23.8647 23.291C23.8559 23.3082 23.8466 23.3252 23.8369 23.342C23.8273 23.3588 23.8172 23.3753 23.8067 23.3917C23.7962 23.4081 23.7854 23.4242 23.7742 23.4401C23.7629 23.4559 23.7513 23.4716 23.7393 23.487C23.7273 23.5023 23.715 23.5175 23.7022 23.5323C23.6895 23.5472 23.6764 23.5618 23.663 23.5761C23.6496 23.5903 23.6359 23.6043 23.6218 23.618C23.6077 23.6317 23.5933 23.6451 23.5786 23.6582C23.5638 23.6713 23.5488 23.6841 23.5335 23.6965C23.5181 23.7089 23.5025 23.721 23.4866 23.7328C23.4707 23.7445 23.4544 23.7559 23.438 23.767C23.4215 23.7781 23.4048 23.7888 23.3878 23.7991C23.3708 23.8095 23.3536 23.8194 23.3362 23.8291C23.3187 23.8387 23.301 23.8479 23.2831 23.8567C23.2652 23.8656 23.2471 23.874 23.2288 23.8821C23.2105 23.8901 23.192 23.8978 23.1733 23.9051C23.1547 23.9123 23.1358 23.9192 23.1168 23.9257C23.0978 23.9321 23.0786 23.9382 23.0593 23.9438C23.0401 23.9494 23.0206 23.9547 23.0011 23.9594C22.9816 23.9642 22.9619 23.9686 22.9422 23.9726C22.9224 23.9765 22.9025 23.9801 22.8826 23.9832C22.8627 23.9862 22.8427 23.9889 22.8227 23.9912L22.6667 24L1.33334 24C1.31316 24 1.29297 23.9996 1.27278 23.9987C1.25262 23.9978 1.23248 23.9965 1.21238 23.9948C1.19227 23.993 1.17222 23.9909 1.15222 23.9883C1.13222 23.9857 1.11229 23.9826 1.09244 23.9792C1.07258 23.9757 1.05282 23.9719 1.03316 23.9675C1.01347 23.9632 0.993906 23.9585 0.974469 23.9533C0.955031 23.9482 0.935719 23.9426 0.916531 23.9367C0.897366 23.9307 0.878344 23.9243 0.859469 23.9175C0.840594 23.9107 0.821897 23.9035 0.803375 23.8959C0.784853 23.8882 0.766522 23.8803 0.748375 23.8719C0.730228 23.8635 0.712303 23.8547 0.694594 23.8455C0.676866 23.8363 0.659366 23.8268 0.642094 23.8169C0.624844 23.807 0.607834 23.7967 0.591062 23.786C0.574291 23.7754 0.557781 23.7644 0.541531 23.753C0.525303 23.7417 0.509344 23.7299 0.493656 23.7179C0.477969 23.7058 0.462584 23.6935 0.4475 23.6808C0.432416 23.6681 0.417647 23.655 0.403188 23.6417C0.388728 23.6283 0.374594 23.6147 0.360781 23.6007C0.346969 23.5868 0.3335 23.5725 0.320375 23.558C0.30725 23.5435 0.294479 23.5287 0.282063 23.5136C0.269646 23.4985 0.257594 23.4832 0.245906 23.4676C0.23424 23.452 0.222948 23.4361 0.212031 23.42C0.201115 23.4039 0.190583 23.3876 0.180438 23.3711C0.170292 23.3546 0.160552 23.3378 0.151219 23.3208C0.141885 23.3039 0.132969 23.2867 0.124469 23.2694C0.115948 23.252 0.107854 23.2345 0.100187 23.2168C0.0925206 23.1991 0.0852813 23.1813 0.0784687 23.1633C0.0716353 23.1453 0.06525 23.1271 0.0593122 23.1089C0.0533747 23.0906 0.047875 23.0722 0.0428125 23.0537C0.0377294 23.0351 0.0331041 23.0166 0.0289373 22.9978C0.0247707 22.9791 0.0210519 22.9603 0.0177813 22.9414C0.0145106 22.9226 0.0116978 22.9036 0.00934363 22.8846L0 22.7368L0 3.78947C0 3.77035 0.000458241 3.75122 0.0013752 3.73213C0.00229168 3.713 0.00366687 3.69394 0.00549984 3.6749C0.00733328 3.65584 0.00962497 3.63686 0.0123749 3.61791C0.0151248 3.59896 0.0183229 3.58008 0.0219688 3.56128C0.0256147 3.54245 0.0297189 3.52371 0.0342813 3.50509C0.0388231 3.48643 0.0438122 3.46793 0.04925 3.44952C0.0546875 3.43107 0.0605625 3.41278 0.066875 3.39463C0.0731875 3.37645 0.0799375 3.35842 0.0871247 3.34057C0.0942916 3.32269 0.101885 3.30495 0.109906 3.28743C0.117948 3.26987 0.126396 3.25249 0.13525 3.23532C0.144104 3.21812 0.153375 3.20113 0.163062 3.18434C0.172729 3.16756 0.182802 3.15098 0.193281 3.13463C0.20374 3.11826 0.214594 3.10216 0.225844 3.08629C0.237073 3.07039 0.248687 3.05476 0.260688 3.03936C0.272687 3.02397 0.285042 3.00884 0.29775 2.99401C0.310479 2.97915 0.323553 2.96455 0.336969 2.95027C0.350366 2.93598 0.364116 2.92198 0.378219 2.90826C0.392303 2.89457 0.406709 2.88118 0.421438 2.86809C0.436166 2.85502 0.451197 2.84227 0.466531 2.82984C0.481884 2.81741 0.497522 2.80531 0.513438 2.79354C0.529353 2.78178 0.545553 2.77036 0.562031 2.75929C0.578491 2.74824 0.595209 2.73753 0.612188 2.72717C0.629166 2.71683 0.646384 2.70686 0.663844 2.69727C0.681303 2.68765 0.698991 2.67843 0.716906 2.66959C0.734803 2.66074 0.752906 2.65229 0.771219 2.64421C0.789531 2.63616 0.808022 2.6285 0.826688 2.62124C0.845353 2.61396 0.864197 2.60709 0.883219 2.60064C0.902219 2.59418 0.921366 2.58814 0.940656 2.58252C0.959947 2.57687 0.979366 2.57165 0.998906 2.56686C1.01845 2.56206 1.03809 2.55769 1.05784 2.55374C1.07762 2.54979 1.09746 2.54627 1.11738 2.54317C1.13729 2.54007 1.15728 2.5374 1.17734 2.53515L1.33334 2.52633L5.66666 2.52633L5.66666 0L7.66666 0ZM22 11.0526L2 11.0526L2 22.1053L22 22.1053L22 11.0526ZM5.66666 4.42107L2 4.42107L2 9.15791L22 9.15791L22 4.42107L18.3333 4.42107L18.3333 6.31581L16.3333 6.31581L16.3333 4.42107L7.66666 4.42107L7.66666 6.31581L5.66666 6.31581L5.66666 4.42107Z"   fill="#635F44" >
</path>
</svg>
