<svg xmlns="http://www.w3.org/2000/svg" xmlns:xlink="http://www.w3.org/1999/xlink" width="24" height="24" viewBox="0 0 24 24" fill="none">
<path d="M0 23.04C0 23.571 0.429 24 0.96 24L23.04 24C23.571 24 24 23.571 24 23.04L24 10.44L0 10.44L0 23.04ZM23.04 2.16L18 2.16L18 0.24C18 0.108 17.892 0 17.76 0L16.08 0C15.948 0 15.84 0.108 15.84 0.24L15.84 2.16L8.16 2.16L8.16 0.24C8.16 0.108 8.052 0 7.92 0L6.24 0C6.108 0 6 0.108 6 0.24L6 2.16L0.96 2.16C0.429 2.16 0 2.589 0 3.12L0 8.4L24 8.4L24 3.12C24 2.589 23.571 2.16 23.04 2.16Z"   fill="#635F44" >
</path>
</svg>
