<svg xmlns="http://www.w3.org/2000/svg" xmlns:xlink="http://www.w3.org/1999/xlink" width="16" height="16" viewBox="0 0 16 16" fill="none">
<path d="M1.72389 8.94271C1.73922 8.95859 1.75493 8.97406 1.77103 8.98915C1.78713 9.00425 1.80359 9.01892 1.82041 9.03318C1.83723 9.04746 1.8544 9.06132 1.87191 9.07473C1.88942 9.08815 1.90725 9.10114 1.92541 9.11367C1.94356 9.1262 1.96202 9.13828 1.98078 9.14989C1.99953 9.16151 2.01856 9.17267 2.03788 9.18332C2.05718 9.19401 2.07674 9.2042 2.09656 9.2139C2.11638 9.22361 2.13642 9.23281 2.15669 9.24151C2.17696 9.25023 2.19743 9.25842 2.21811 9.26611C2.23879 9.27381 2.25964 9.28098 2.28067 9.28764C2.30172 9.29429 2.3229 9.30043 2.34424 9.30603C2.36558 9.31164 2.38704 9.31672 2.40863 9.32125C2.43022 9.32578 2.45191 9.32978 2.4737 9.33325C2.4955 9.33671 2.51736 9.33962 2.53928 9.342C2.56122 9.34437 2.5832 9.34621 2.60522 9.3475C2.62725 9.34878 2.6493 9.34953 2.67136 9.34971C2.69342 9.3499 2.71548 9.34954 2.73752 9.34864C2.75956 9.34775 2.78156 9.34629 2.80353 9.34429C2.82551 9.34231 2.84742 9.33978 2.86927 9.33668C2.89111 9.33361 2.91286 9.32998 2.93453 9.32581C2.9562 9.32165 2.97775 9.31695 2.99919 9.31172C3.02061 9.3065 3.04191 9.30073 3.06305 9.29443C3.08419 9.28815 3.10517 9.28134 3.12598 9.274C3.1468 9.26667 3.16741 9.25882 3.18783 9.25047C3.20825 9.24212 3.22844 9.23326 3.24842 9.2239C3.26841 9.21456 3.28816 9.20471 3.30764 9.19437C3.32713 9.18403 3.34634 9.17321 3.3653 9.16192C3.38425 9.15064 3.40292 9.13889 3.4213 9.12667C3.43966 9.11445 3.45772 9.10179 3.47547 9.08867C3.4932 9.07556 3.51061 9.06201 3.52767 9.04803C3.54475 9.03406 3.56145 9.01967 3.57781 9.00486C3.59417 8.99004 3.61014 8.97484 3.62575 8.95923C3.64136 8.94364 3.65656 8.92767 3.67136 8.91131C3.68617 8.89497 3.70056 8.87825 3.71455 8.86117C3.72852 8.84411 3.74206 8.8267 3.75517 8.80895C3.76828 8.79121 3.78095 8.77315 3.79317 8.75478C3.80539 8.7364 3.81714 8.71775 3.82844 8.69879C3.83973 8.67984 3.85055 8.66062 3.86087 8.64112C3.87122 8.62164 3.88106 8.6019 3.89042 8.58192C3.89978 8.56195 3.90862 8.54175 3.91698 8.52131C3.92534 8.5009 3.93319 8.48029 3.94052 8.45948C3.94784 8.43867 3.95466 8.4177 3.96095 8.39654C3.96723 8.3754 3.973 8.3541 3.97823 8.33267C3.98347 8.31125 3.98816 8.2897 3.99233 8.26803C3.99648 8.24637 4.00011 8.2246 4.00319 8.20275C4.00627 8.18091 4.00881 8.159 4.01081 8.13703C4.0128 8.11506 4.01425 8.09305 4.01516 8.071C4.01606 8.04896 4.01642 8.02691 4.01622 8.00484C4.01603 7.98278 4.0153 7.96074 4.01402 7.93872C4.01272 7.91669 4.01089 7.89471 4.00852 7.87278C4.00614 7.85084 4.00322 7.82898 3.99975 7.80719C3.9963 7.78541 3.9923 7.76372 3.98775 7.74213C3.9832 7.72053 3.97814 7.69907 3.97253 7.67773C3.96692 7.65639 3.9608 7.6352 3.95414 7.61417C3.94748 7.59313 3.94031 7.57227 3.93263 7.55159C3.92494 7.53092 3.91673 7.51044 3.90803 7.49017C3.89933 7.4699 3.89011 7.44986 3.88041 7.43005C3.8707 7.41024 3.86052 7.39067 3.84984 7.37136C3.83917 7.35206 3.82802 7.33303 3.81641 7.31426C3.8048 7.29552 3.79272 7.27706 3.78017 7.25891C3.76764 7.24075 3.75467 7.22291 3.74125 7.20539C3.72783 7.18788 3.71397 7.17071 3.6997 7.15389C3.68544 7.13707 3.67075 7.12061 3.65566 7.10452C3.64058 7.08842 3.62509 7.07271 3.60922 7.05737C3.5937 7.04239 3.57783 7.02778 3.56159 7.01356C3.54536 6.99934 3.5288 6.98553 3.51189 6.97211C3.495 6.95869 3.47778 6.94569 3.46025 6.93311C3.4427 6.92053 3.42488 6.90838 3.40677 6.89667C3.38864 6.88495 3.37023 6.87368 3.35156 6.86286C3.33289 6.85205 3.31397 6.84169 3.2948 6.83178C3.27562 6.82187 3.25623 6.81244 3.23659 6.80348C3.21697 6.79453 3.19714 6.78605 3.17709 6.77805C3.15705 6.77005 3.13681 6.76254 3.11641 6.75553C3.096 6.74851 3.07544 6.74199 3.05472 6.73598C3.03398 6.72996 3.01312 6.72445 2.99214 6.71945C2.97116 6.71444 2.95005 6.70995 2.92884 6.70597C2.90764 6.70199 2.88635 6.69853 2.86497 6.69558C2.84359 6.69263 2.82215 6.69021 2.80066 6.68831C2.77916 6.68641 2.75763 6.68502 2.73606 6.68416C2.7145 6.6833 2.69293 6.68297 2.67136 6.68316C2.64978 6.68334 2.62822 6.68405 2.60667 6.68528C2.58513 6.68652 2.56363 6.68828 2.54217 6.69055C2.52072 6.69283 2.49933 6.69562 2.478 6.69894C2.45668 6.70226 2.43545 6.70609 2.4143 6.71044C2.39316 6.71479 2.37215 6.71965 2.35125 6.72502C2.33035 6.73038 2.30958 6.73625 2.28897 6.74262C2.26836 6.74901 2.24791 6.75589 2.22763 6.76325C2.20735 6.77061 2.18725 6.77847 2.16735 6.78683C2.14745 6.79517 2.12777 6.80399 2.1083 6.81328C2.08882 6.82258 2.06958 6.83235 2.05058 6.84259C2.03159 6.85282 2.01286 6.86351 1.99438 6.87466C1.9759 6.8858 1.9577 6.89739 1.93978 6.90942C1.92187 6.92144 1.90425 6.9339 1.88694 6.94678C1.86963 6.95967 1.85264 6.97296 1.83597 6.98667C1.8193 7.00038 1.80298 7.01449 1.787 7.02898C1.77101 7.04348 1.75539 7.05836 1.74013 7.07363C1.72488 7.08889 1.71 7.10451 1.6955 7.12048C1.68099 7.13646 1.66689 7.15279 1.65319 7.16945C1.63948 7.18612 1.62618 7.20311 1.6133 7.22042C1.60041 7.23773 1.58795 7.25535 1.57592 7.27326C1.5639 7.29118 1.55231 7.30938 1.54117 7.32786C1.53003 7.34634 1.51934 7.36508 1.5091 7.38408C1.49887 7.40308 1.4891 7.42231 1.4798 7.44178C1.4705 7.46125 1.46168 7.48094 1.45333 7.50084C1.44499 7.52074 1.43713 7.54083 1.42976 7.56111C1.42239 7.58139 1.41552 7.60184 1.40914 7.62247C1.40277 7.64308 1.39689 7.66384 1.39153 7.68473C1.38616 7.70564 1.3813 7.72666 1.37695 7.7478C1.3726 7.76893 1.36877 7.79016 1.36546 7.81148C1.36214 7.83281 1.35934 7.8542 1.35706 7.87566C1.35478 7.89711 1.35303 7.91861 1.35179 7.94016C1.35056 7.96171 1.34985 7.98327 1.34966 8.00484C1.34947 8.02643 1.34981 8.048 1.35067 8.06956C1.35153 8.09112 1.35291 8.11265 1.35482 8.13414C1.35672 8.15564 1.35915 8.17708 1.36209 8.19845C1.36504 8.21983 1.3685 8.24112 1.37248 8.26232C1.37646 8.28354 1.38095 8.30464 1.38596 8.32564C1.39096 8.34664 1.39647 8.36748 1.40249 8.3882C1.40851 8.40893 1.41502 8.4295 1.42204 8.4499C1.42905 8.47031 1.43656 8.49054 1.44456 8.51057C1.45256 8.53062 1.46104 8.55046 1.47 8.57009C1.47896 8.58972 1.48839 8.60912 1.49829 8.62829C1.50819 8.64748 1.51855 8.6664 1.52938 8.68506C1.5402 8.70373 1.55146 8.72212 1.56317 8.74025C1.57489 8.75837 1.58704 8.7762 1.59963 8.79373C1.61221 8.81126 1.6252 8.82848 1.63861 8.84539C1.65203 8.86229 1.66585 8.87886 1.68008 8.89507C1.6943 8.91132 1.7089 8.9272 1.72389 8.94271ZM7.05722 8.94271C7.07255 8.95859 7.08827 8.97406 7.10436 8.98915C7.12045 9.00425 7.13691 9.01892 7.15373 9.03318C7.17056 9.04746 7.18772 9.06132 7.20523 9.07473C7.22275 9.08815 7.24059 9.10114 7.25875 9.11367C7.27691 9.1262 7.29536 9.13828 7.31411 9.14989C7.33287 9.16151 7.35191 9.17267 7.3712 9.18332C7.39052 9.19401 7.41008 9.2042 7.42989 9.2139C7.4497 9.22361 7.46975 9.23281 7.49002 9.24151C7.51028 9.25023 7.53077 9.25842 7.55144 9.26611C7.57211 9.27381 7.59297 9.28098 7.61402 9.28764C7.63505 9.29429 7.65623 9.30043 7.67758 9.30603C7.69891 9.31164 7.72038 9.31672 7.74197 9.32125C7.76356 9.32578 7.78525 9.32978 7.80703 9.33325C7.82883 9.33671 7.85069 9.33962 7.87262 9.342C7.89455 9.34437 7.91653 9.34621 7.93856 9.3475C7.96058 9.34878 7.98263 9.34953 8.00469 9.34971C8.02675 9.3499 8.0488 9.34954 8.07084 9.34864C8.09289 9.34775 8.11491 9.34629 8.13688 9.34429C8.15884 9.34231 8.18075 9.33978 8.20259 9.33668C8.22445 9.33361 8.2462 9.32998 8.26788 9.32581C8.28955 9.32165 8.31109 9.31695 8.33252 9.31172C8.35395 9.3065 8.37525 9.30073 8.39639 9.29443C8.41753 9.28815 8.43852 9.28134 8.45933 9.274C8.48013 9.26667 8.50073 9.25882 8.52116 9.25047C8.54158 9.24212 8.56178 9.23326 8.58177 9.2239C8.60175 9.21456 8.62148 9.20471 8.64097 9.19437C8.66045 9.18403 8.67969 9.17321 8.69864 9.16192C8.71759 9.15064 8.73625 9.13889 8.75463 9.12667C8.773 9.11445 8.79106 9.10179 8.8088 9.08867C8.82653 9.07556 8.84394 9.06201 8.86102 9.04803C8.87808 9.03406 8.8948 9.01967 8.91116 9.00486C8.92752 8.99004 8.94348 8.97484 8.95908 8.95923C8.97469 8.94364 8.98989 8.92767 9.0047 8.91131C9.0195 8.89497 9.03389 8.87825 9.04787 8.86117C9.06186 8.84411 9.07541 8.8267 9.08852 8.80895C9.10163 8.79121 9.1143 8.77315 9.12652 8.75478C9.13872 8.7364 9.15047 8.71775 9.16177 8.69879C9.17306 8.67984 9.18388 8.66062 9.19422 8.64112C9.20455 8.62164 9.21439 8.6019 9.22375 8.58192C9.23311 8.56195 9.24195 8.54175 9.25031 8.52131C9.25867 8.5009 9.26652 8.48029 9.27384 8.45948C9.28117 8.43867 9.28798 8.4177 9.29428 8.39654C9.30058 8.3754 9.30633 8.3541 9.31156 8.33267C9.3168 8.31125 9.32148 8.2897 9.32566 8.26803C9.32983 8.24637 9.33345 8.2246 9.33653 8.20275C9.33961 8.18091 9.34216 8.159 9.34414 8.13703C9.34614 8.11506 9.34759 8.09305 9.34848 8.071C9.34939 8.04896 9.34975 8.02691 9.34956 8.00484C9.34936 7.98278 9.34863 7.96074 9.34734 7.93872C9.34605 7.91669 9.34422 7.89471 9.34184 7.87278C9.33947 7.85084 9.33655 7.82898 9.33309 7.80719C9.32963 7.78541 9.32562 7.76372 9.32109 7.74213C9.31655 7.72053 9.31148 7.69907 9.30587 7.67773C9.30027 7.65639 9.29414 7.6352 9.28748 7.61417C9.28083 7.59313 9.27366 7.57227 9.26595 7.55159C9.25827 7.53092 9.25006 7.51044 9.24136 7.49017C9.23266 7.4699 9.22345 7.44986 9.21375 7.43005C9.20405 7.41024 9.19384 7.39067 9.18317 7.37136C9.1725 7.35206 9.16136 7.33303 9.14973 7.31426C9.13812 7.29552 9.12605 7.27706 9.11352 7.25891C9.10097 7.24075 9.088 7.22291 9.07458 7.20539C9.06116 7.18788 9.04731 7.17071 9.03303 7.15389C9.01877 7.13707 9.00408 7.12061 8.989 7.10452C8.97391 7.08842 8.95842 7.07271 8.94256 7.05737C8.92705 7.04239 8.91116 7.02778 8.89492 7.01356C8.87869 6.99934 8.86213 6.98553 8.84523 6.97211C8.82833 6.95869 8.81111 6.94569 8.79358 6.93311C8.77605 6.92053 8.75822 6.90838 8.74009 6.89667C8.72197 6.88495 8.70358 6.87368 8.68491 6.86286C8.66623 6.85205 8.64731 6.84169 8.62814 6.83178C8.60897 6.82187 8.58956 6.81244 8.56994 6.80348C8.5503 6.79453 8.53047 6.78605 8.51042 6.77805C8.49038 6.77005 8.47016 6.76254 8.44975 6.75553C8.42934 6.74851 8.40878 6.74199 8.38805 6.73598C8.36733 6.72996 8.34647 6.72445 8.32548 6.71945C8.30448 6.71444 8.28337 6.70995 8.26217 6.70597C8.24097 6.70199 8.21967 6.69853 8.1983 6.69558C8.17692 6.69263 8.15548 6.69021 8.13398 6.68831C8.1125 6.68641 8.09097 6.68502 8.06941 6.68416C8.04784 6.6833 8.02627 6.68297 8.00469 6.68316C7.98311 6.68334 7.96155 6.68405 7.94 6.68528C7.91845 6.68652 7.89695 6.68828 7.8755 6.69055C7.85405 6.69283 7.83266 6.69562 7.81133 6.69894C7.79 6.70226 7.76878 6.70609 7.74764 6.71044C7.7265 6.71479 7.70548 6.71965 7.68458 6.72502C7.66369 6.73038 7.64292 6.73625 7.62231 6.74262C7.60169 6.74901 7.58123 6.75589 7.56095 6.76325C7.54067 6.77061 7.52058 6.77847 7.50069 6.78683C7.48078 6.79517 7.46109 6.80399 7.44163 6.81328C7.42216 6.82258 7.40292 6.83235 7.38392 6.84259C7.36492 6.85282 7.34619 6.86351 7.3277 6.87466C7.30922 6.8858 7.29103 6.89739 7.27311 6.90942C7.25519 6.92144 7.23758 6.9339 7.22027 6.94678C7.20295 6.95967 7.18597 6.97296 7.1693 6.98667C7.15263 7.00038 7.13631 7.01449 7.12033 7.02898C7.10434 7.04348 7.08873 7.05836 7.07347 7.07363C7.0582 7.08889 7.04333 7.10451 7.02883 7.12048C7.01433 7.13646 7.00022 7.15279 6.98652 7.16945C6.97281 7.18612 6.95952 7.20311 6.94663 7.22042C6.93373 7.23773 6.92128 7.25535 6.90927 7.27326C6.89723 7.29118 6.88564 7.30938 6.8745 7.32786C6.86336 7.34634 6.85267 7.36508 6.84244 7.38408C6.8322 7.40308 6.82242 7.42231 6.81313 7.44178C6.80383 7.46125 6.79502 7.48094 6.78667 7.50084C6.77831 7.52074 6.77045 7.54083 6.76309 7.56111C6.75573 7.58139 6.74886 7.60184 6.74247 7.62247C6.73609 7.64308 6.73022 7.66384 6.72486 7.68473C6.7195 7.70564 6.71464 7.72666 6.71028 7.7478C6.70594 7.76893 6.70211 7.79016 6.69878 7.81148C6.69547 7.83281 6.69267 7.8542 6.69039 7.87566C6.68813 7.89711 6.68636 7.91861 6.68512 7.94016C6.68389 7.96171 6.68319 7.98327 6.683 8.00484C6.68281 8.02643 6.68314 8.048 6.684 8.06956C6.68486 8.09112 6.68625 8.11265 6.68816 8.13414C6.69005 8.15564 6.69247 8.17708 6.69542 8.19845C6.69838 8.21983 6.70183 8.24112 6.70581 8.26232C6.7098 8.28354 6.71428 8.30464 6.7193 8.32564C6.7243 8.34664 6.72981 8.36748 6.73583 8.3882C6.74184 8.40893 6.74836 8.4295 6.75537 8.4499C6.76239 8.47031 6.76989 8.49054 6.77789 8.51057C6.78589 8.53062 6.79437 8.55046 6.80333 8.57009C6.81228 8.58972 6.82172 8.60912 6.83162 8.62829C6.84153 8.64748 6.85189 8.6664 6.8627 8.68506C6.87353 8.70373 6.8848 8.72212 6.89652 8.74025C6.90822 8.75837 6.92037 8.7762 6.93295 8.79373C6.94553 8.81126 6.95853 8.82848 6.97195 8.84539C6.98537 8.86229 6.99919 8.87886 7.01341 8.89507C7.02763 8.91132 7.04223 8.9272 7.05722 8.94271ZM12.3906 8.94271C12.4059 8.95859 12.4216 8.97406 12.4377 8.98915C12.4538 9.00425 12.4703 9.01892 12.4871 9.0332C12.5039 9.04748 12.5211 9.06132 12.5386 9.07473C12.5561 9.08815 12.5739 9.10114 12.5921 9.11367C12.6102 9.1262 12.6287 9.13828 12.6474 9.1499C12.6662 9.16153 12.6852 9.17267 12.7045 9.18334C12.7238 9.19401 12.7434 9.2042 12.7632 9.2139C12.783 9.22361 12.8031 9.23281 12.8233 9.24151C12.8436 9.25023 12.8641 9.25843 12.8848 9.26612C12.9055 9.27381 12.9263 9.28098 12.9473 9.28764C12.9684 9.29429 12.9896 9.30043 13.0109 9.30603C13.0323 9.31164 13.0537 9.31672 13.0753 9.32125C13.0969 9.32579 13.1186 9.32979 13.1404 9.33325C13.1622 9.33671 13.184 9.33964 13.206 9.34201C13.2279 9.34439 13.2499 9.34621 13.2719 9.3475C13.2939 9.34879 13.316 9.34953 13.338 9.34971C13.3601 9.34992 13.3821 9.34956 13.4042 9.34865C13.4262 9.34775 13.4482 9.34631 13.4702 9.34431C13.4922 9.34231 13.5141 9.33978 13.5359 9.33668C13.5578 9.33361 13.5795 9.32998 13.6012 9.32582C13.6229 9.32167 13.6444 9.31697 13.6659 9.31173C13.6873 9.3065 13.7086 9.30073 13.7297 9.29443C13.7509 9.28815 13.7718 9.28135 13.7927 9.27401C13.8135 9.26668 13.8341 9.25884 13.8545 9.25048C13.8749 9.24214 13.8951 9.23328 13.9151 9.22392C13.9351 9.21457 13.9548 9.20471 13.9743 9.19437C13.9938 9.18404 14.013 9.17323 14.032 9.16193C14.0509 9.15065 14.0696 9.13889 14.088 9.12667C14.1063 9.11445 14.1244 9.10179 14.1421 9.08867C14.1599 9.07556 14.1773 9.06201 14.1944 9.04804C14.2114 9.03407 14.2281 9.01967 14.2445 9.00486C14.2609 8.99006 14.2768 8.97486 14.2924 8.95925C14.308 8.94365 14.3232 8.92767 14.338 8.91131C14.3528 8.89497 14.3672 8.87825 14.3812 8.86117C14.3952 8.84411 14.4087 8.8267 14.4219 8.80895C14.435 8.79121 14.4476 8.77317 14.4599 8.75479C14.4721 8.73642 14.4838 8.71776 14.4951 8.69879C14.5064 8.67986 14.5172 8.66062 14.5276 8.64112C14.5379 8.62164 14.5477 8.6019 14.5571 8.58192C14.5665 8.56195 14.5753 8.54175 14.5837 8.52132C14.592 8.50092 14.5999 8.48029 14.6072 8.45948C14.6145 8.43867 14.6213 8.4177 14.6276 8.39654C14.6339 8.3754 14.6397 8.3541 14.6449 8.33267C14.6501 8.31125 14.6548 8.2897 14.659 8.26803C14.6632 8.24637 14.6668 8.22461 14.6699 8.20276C14.673 8.18091 14.6755 8.159 14.6775 8.13703C14.6795 8.11506 14.6809 8.09306 14.6818 8.07101C14.6827 8.04896 14.6831 8.02691 14.6829 8.00484C14.6827 7.98278 14.682 7.96074 14.6807 7.93872C14.6794 7.9167 14.6776 7.89472 14.6752 7.87278C14.6728 7.85084 14.6699 7.82898 14.6664 7.80719C14.663 7.78541 14.659 7.76372 14.6544 7.74213C14.6499 7.72053 14.6448 7.69907 14.6392 7.67773C14.6336 7.65639 14.6275 7.6352 14.6208 7.61417C14.6142 7.59313 14.607 7.57227 14.5993 7.55159C14.5916 7.53092 14.5834 7.51044 14.5747 7.49017C14.566 7.4699 14.5568 7.44986 14.5471 7.43005C14.5374 7.41024 14.5272 7.39067 14.5165 7.37136C14.5058 7.35205 14.4947 7.33301 14.4831 7.31426C14.4715 7.29551 14.4594 7.27705 14.4468 7.25891C14.4343 7.24075 14.4213 7.22291 14.4079 7.20539C14.3945 7.18788 14.3806 7.17071 14.3664 7.15389C14.3521 7.13707 14.3374 7.12061 14.3223 7.10452C14.3073 7.08842 14.2918 7.07271 14.2759 7.05737C14.2604 7.04239 14.2445 7.02778 14.2283 7.01356C14.212 6.99934 14.1955 6.98553 14.1786 6.97211C14.1617 6.95869 14.1444 6.94569 14.1269 6.93311C14.1094 6.92054 14.0915 6.90839 14.0734 6.89667C14.0553 6.88495 14.0369 6.87369 14.0182 6.86287C13.9996 6.85205 13.9806 6.84169 13.9615 6.83178C13.9423 6.82187 13.9229 6.81244 13.9033 6.80348C13.8836 6.79453 13.8638 6.78605 13.8438 6.77805C13.8237 6.77006 13.8035 6.76255 13.7831 6.75553C13.7627 6.74852 13.7421 6.742 13.7214 6.73598C13.7007 6.72996 13.6798 6.72445 13.6588 6.71945C13.6378 6.71445 13.6167 6.70996 13.5955 6.70598C13.5743 6.70199 13.553 6.69853 13.5316 6.69559C13.5103 6.69265 13.4888 6.69022 13.4673 6.68831C13.4458 6.68641 13.4243 6.68503 13.4027 6.68417C13.3812 6.68331 13.3596 6.68297 13.338 6.68316C13.3165 6.68334 13.2949 6.68406 13.2733 6.6853C13.2518 6.68653 13.2303 6.68828 13.2088 6.69056C13.1874 6.69284 13.166 6.69564 13.1447 6.69895C13.1233 6.70227 13.1021 6.7061 13.081 6.71045C13.0598 6.7148 13.0388 6.71966 13.0179 6.72503C12.997 6.7304 12.9762 6.73627 12.9556 6.74264C12.935 6.74902 12.9146 6.75589 12.8943 6.76327C12.874 6.77063 12.8539 6.77848 12.834 6.78683C12.8141 6.79517 12.7944 6.80399 12.775 6.8133C12.7555 6.8226 12.7362 6.83236 12.7172 6.84259C12.6983 6.85283 12.6795 6.86353 12.661 6.87467C12.6426 6.88582 12.6244 6.8974 12.6065 6.90942C12.5885 6.92145 12.5709 6.93391 12.5536 6.9468C12.5363 6.95968 12.5193 6.97298 12.5026 6.98669C12.486 7.00039 12.4697 7.01449 12.4537 7.029C12.4377 7.0435 12.4221 7.05837 12.4068 7.07363C12.3915 7.08889 12.3767 7.10451 12.3622 7.12048C12.3477 7.13647 12.3336 7.1528 12.3199 7.16947C12.3062 7.18614 12.2929 7.20312 12.28 7.22044C12.2671 7.23774 12.2546 7.25535 12.2426 7.27326C12.2306 7.29118 12.219 7.30938 12.2078 7.32786C12.1967 7.34634 12.186 7.36508 12.1758 7.38408C12.1655 7.40308 12.1558 7.42231 12.1465 7.44178C12.1372 7.46126 12.1284 7.48095 12.12 7.50084C12.1117 7.52075 12.1038 7.54084 12.0964 7.56112C12.0891 7.58141 12.0822 7.60185 12.0758 7.62247C12.0694 7.64308 12.0636 7.66384 12.0582 7.68473C12.0528 7.70564 12.048 7.72666 12.0436 7.7478C12.0393 7.76893 12.0355 7.79016 12.0321 7.81148C12.0288 7.83281 12.026 7.8542 12.0237 7.87566C12.0215 7.89711 12.0197 7.91861 12.0185 7.94016C12.0172 7.96171 12.0165 7.98327 12.0163 8.00484C12.0161 8.02643 12.0165 8.048 12.0173 8.06956C12.0182 8.09112 12.0196 8.11265 12.0215 8.13414C12.0234 8.15564 12.0258 8.17708 12.0288 8.19845C12.0317 8.21983 12.0352 8.24112 12.0392 8.26232C12.0431 8.28354 12.0476 8.30465 12.0526 8.32564C12.0576 8.34664 12.0631 8.36748 12.0692 8.3882C12.0752 8.40893 12.0817 8.4295 12.0887 8.4499C12.0957 8.47031 12.1032 8.49054 12.1112 8.51057C12.1192 8.53062 12.1277 8.55046 12.1367 8.57009C12.1456 8.58972 12.1551 8.60912 12.165 8.62829C12.1749 8.64746 12.1852 8.66639 12.196 8.68506C12.2069 8.70373 12.2181 8.72212 12.2298 8.74025C12.2416 8.75837 12.2537 8.7762 12.2663 8.79373C12.2789 8.81126 12.2919 8.82848 12.3053 8.84539C12.3187 8.86229 12.3325 8.87886 12.3467 8.89507C12.361 8.91132 12.3756 8.9272 12.3906 8.94271Z"   fill="#666666" >
</path>
</svg>
