<svg xmlns="http://www.w3.org/2000/svg" xmlns:xlink="http://www.w3.org/1999/xlink" width="24" height="24" viewBox="0 0 24 24" fill="none">
<path d="M23.7794 12.2142L12.5208 0.206933C12.3855 0.072683 12.209 0.0119713 12.0265 0L11.8886 0C11.7061 0.0111163 11.5296 0.0718281 11.3943 0.206933L0.221363 12.2142C-0.0896142 12.5255 -0.0707671 13.0471 0.264197 13.3814C0.269337 13.3865 0.275333 13.3882 0.280474 13.3925C0.429537 13.5524 0.635998 13.6533 0.866447 13.6533L3.39968 13.6533L3.39968 23.0791C3.39968 23.3305 3.51362 23.5502 3.68667 23.7067C3.83659 23.8837 4.04905 24 4.2932 24L9.42389 24C9.65862 24 9.86766 23.894 10.0167 23.7281C10.2086 23.5716 10.3388 23.3441 10.3388 23.0774L10.3388 22.8277C10.3345 22.8037 10.3243 22.7823 10.3243 22.7567L10.3243 17.5192C10.3243 17.2832 10.5162 17.0917 10.7526 17.0917L13.2516 17.0917C13.488 17.0917 13.6799 17.2832 13.6799 17.5192L13.6799 22.7567C13.6799 22.7755 13.6713 22.7917 13.6688 22.8097L13.6688 23.0774C13.6688 23.3441 13.799 23.5716 13.9909 23.7281C14.1399 23.894 14.349 24 14.5837 24L19.7144 24C19.9586 24 20.171 23.8837 20.3209 23.7067C20.4948 23.5502 20.6079 23.3305 20.6079 23.0791L20.6079 13.6533L23.1411 13.6533C23.375 13.6533 23.5832 13.5482 23.7323 13.3831C23.7331 13.3823 23.7348 13.3814 23.7357 13.3806C24.0707 13.0479 24.0895 12.5255 23.7794 12.2142ZM9.43332 15.3635C8.98099 15.3635 8.61432 15.7466 8.61432 16.2186C8.61432 16.2383 8.62375 16.2545 8.62461 16.2742L8.62461 22.2898L5.11305 22.2898L5.11305 12.8136C5.11305 12.6913 5.08564 12.5768 5.03937 12.4724C4.91687 12.162 4.6256 11.9431 4.28378 11.9431L2.79314 11.9431L11.4911 2.52339C11.9143 2.10097 12.0197 2.09926 12.4232 2.52339L21.1965 11.944L19.7247 11.944C19.3829 11.944 19.0916 12.1629 18.9691 12.4733C18.9228 12.5785 18.8954 12.6931 18.8954 12.8145L18.8954 22.2907L15.383 22.2907L15.383 16.2349C15.383 16.2323 15.3813 16.2297 15.3813 16.2272C15.3813 16.2246 15.383 16.222 15.383 16.2195C15.383 15.7475 15.0163 15.3644 14.564 15.3644L9.43332 15.3644L9.43332 15.3635Z"   fill="currentColor" >
</path>
</svg>
