<svg xmlns="http://www.w3.org/2000/svg" xmlns:xlink="http://www.w3.org/1999/xlink" width="24.00042724609375" height="24.0029296875" viewBox="0 0 24.00042724609375 24.0029296875" fill="none">
<path d="M23.5 11.8029L12.6 0.26293C12.2691 -0.0875478 11.7309 -0.0875478 11.4 0.26293L0.5 11.8029C0.182316 12.1394 0 12.5963 0 13.0729C0 14.0627 0.755481 14.8729 1.69 14.8729L2.84 14.8729L2.84 23.1029C2.84 23.5992 3.22142 24.0029 3.69 24.0029L10.31 24.0029L10.31 17.7229L13.27 17.7229L13.27 24.0029L20.31 24.0029C20.7786 24.0029 21.16 23.5992 21.16 23.1029L21.16 14.8729L22.31 14.8729C22.7601 14.8729 23.1923 14.6822 23.51 14.3429C24.1692 13.642 24.1618 12.5039 23.5 11.8029Z"   fill="#635F44" >
</path>
</svg>
