<svg xmlns="http://www.w3.org/2000/svg" xmlns:xlink="http://www.w3.org/1999/xlink" width="24" height="24" viewBox="0 0 24 24" fill="none">
<path d="M23.9755 21.7022C23.9685 21.6026 23.9539 21.4515 23.9279 21.2548C23.8796 20.8878 23.8073 20.481 23.706 20.044C23.4166 18.7967 22.9501 17.5488 22.2648 16.3783C20.4642 13.3043 17.5163 11.3418 13.2548 11.0228C15.7596 10.4568 17.6284 8.23538 17.6284 5.5813C17.6284 2.49892 15.1074 0 11.9977 0C8.88801 0 6.36698 2.49892 6.36698 5.5813C6.36698 8.23572 8.23613 10.4568 10.7409 11.0232C6.47947 11.3422 3.53153 13.3053 1.73062 16.3799C1.04531 17.5505 0.578866 18.7988 0.289073 20.0464C0.187746 20.4833 0.115129 20.8905 0.0668294 21.2575C0.0401471 21.4609 0.0252856 21.6154 0.0188671 21.7146C-0.144944 22.9595 0.776792 24 2.05115 24L21.9436 24C23.2244 24 24.1657 22.9484 23.9755 21.7022ZM7.86865 5.5813C7.86865 3.32064 9.71719 1.48822 11.9977 1.48822C14.2782 1.48822 16.1268 3.32064 16.1268 5.5813C16.1268 7.84196 14.2779 9.67434 11.9977 9.67434C9.71753 9.67434 7.86865 7.84196 7.86865 5.5813ZM21.9443 22.5118L2.05149 22.5118C1.67962 22.5118 1.45601 22.2561 1.50938 21.8945L1.51445 21.861L1.51614 21.8272C1.51682 21.8161 1.51883 21.7866 1.52322 21.74C1.53067 21.6576 1.54148 21.5604 1.55601 21.4498C1.59822 21.1291 1.66204 20.7692 1.75222 20.3805C2.01027 19.2693 2.42505 18.1587 3.02928 17.1272C4.7407 14.2047 7.60418 12.4651 11.9977 12.4651C16.3916 12.4651 19.2547 14.2044 20.9661 17.1259C21.5701 18.1567 21.9848 19.2669 22.2429 20.3781C22.333 20.7665 22.3972 21.1261 22.4391 21.4471C22.4536 21.5577 22.4644 21.6549 22.4715 21.7374C22.4759 21.7839 22.4779 21.8131 22.4786 21.8245L22.481 21.8677L22.4884 21.9103C22.5485 22.2534 22.3209 22.5118 21.9443 22.5118Z"   fill="#665D21" >
</path>
</svg>
