<svg xmlns="http://www.w3.org/2000/svg" xmlns:xlink="http://www.w3.org/1999/xlink" width="775" height="775" viewBox="0 0 775 775" fill="none">
<circle cx="375" cy="400" r="375"   fill="#F7DAA1" >
</circle>
<path d="M416.02 280.509C403.171 276.94 389.369 275 375 275C359.036 275 343.77 277.394 329.735 281.758C322.466 266.506 302.586 227.893 280.883 212.5C280.883 212.5 258.139 272.199 263.247 330.149C254.773 343.638 250 358.872 250 375C250 421.025 288.866 459.788 341.772 471.429C288.866 500.533 250 597.439 250 712.5C250 726.732 250.595 740.688 251.738 754.271C290.342 767.701 331.819 775 375 775C418.181 775 459.658 767.701 498.263 754.271C499.405 740.688 500 726.732 500 712.5C500 597.439 461.134 500.533 408.226 471.429C461.134 459.788 500 421.025 500 375C500 356.269 493.562 338.741 482.361 323.755C485.376 267.891 464.275 212.5 464.275 212.5C443.14 227.488 423.735 264.494 416.02 280.509Z" fill-rule="evenodd"  fill="#4F927F" >
</path>
<circle cx="650" cy="125" r="125"   fill="#D1D2D0" >
</circle>
<path    stroke="rgba(82, 84, 86, 1.00)" stroke-width="25"    d="M650 200L650 50M575 125L725 125">
</path>
</svg>
